# xmcd
#
# Track frame offsets:
#	150
#	12068
#	28983
#	44613
#	62987
#	81814
#	102096
#	119789
#	138005
#	157690
#	173142
#	191955
#	211919
#	232282
#	253144
#	278639
#	299479
#	323252
#
# Disc length: 4595 seconds
#
# Revision: 0
# Processed by: cddbd v1.5.2PL0 Copyright (c) Steve Scherf et al.
# Submitted via: EasyCDDAExtractor 12.0.1.1
#
DISCID=0611f112
DTITLE=Various Artist - 精选
DYEAR=2000
DGENRE=pop
TTITLE0=刘德华,郑秀文 - 同行
TTITLE1=刘德华 - 左胸膛
TTITLE2=刘德华 - 太想爱
TTITLE3=刘德华 - 带走我所有
TTITLE4=刘德华 - 终于找到
TTITLE5=刘德华 - 寂寞时分
TTITLE6=刘德华 - 绝对是你
TTITLE7=刘德华 - 17岁
TTITLE8=刘德华 - 练习
TTITLE9=刘德华 - 天生天养
TTITLE10=刘德华,陈慧琳 - 我不够爱你
TTITLE11=刘德华 - 回家真好
TTITLE12=刘德华 - 真我的风采
TTITLE13=刘德华 - 谢谢你的爱
TTITLE14=刘德华 - 孤星泪
TTITLE15=刘德华 - 忘情水
TTITLE16=刘德华 - 男人哭吧不是罪
TTITLE17=刘德华 - 如果我是你的传说
EXTD=
EXTT0=
EXTT1=
EXTT2=
EXTT3=
EXTT4=
EXTT5=
EXTT6=
EXTT7=
EXTT8=
EXTT9=
EXTT10=
EXTT11=
EXTT12=
EXTT13=
EXTT14=
EXTT15=
EXTT16=
EXTT17=
PLAYORDER=
